/*
// **********************************************************************
// Converted with SF22SFZ Converter v1.929
// Copyright Jun 17 2019 , Plogue Art et Technologie, Inc
// **********************************************************************
// Conversion Date: Wed Sep 18 14:21:41 2024
// **********************************************************************
// Parent file    : D:/Ownbound/ownbound_game/music/Sound Fonts/Trumpet3.sf2
// Soundfont      : 2.1
// Internal Name  : Special Effects
// Optimised for  : E-mu 10K1
// Intendend for  : SBAWE32
// Editor Used    : SF1To2 1.13:SFEDT v1.28:
*/

<control>
 hint_load_method=1
 set_cc1=0     //Power-on Default Values: Modulation
 set_cc11=127  //Power-on Default Values: Expression
 set_cc64=0    //Power-on Default Values: Sustain Pedal

<global>
 sample=sf2_smpl.wav
 //8.4.2 MIDI Note-On Velocity to Filter Cutoff
 //8.4.8 MIDI Continuous Controller 91 to Reverb Effects Send
 //8.4.9 MIDI Continuous Controller 93 to Chorus Effects Send
 //8.4.10 MIDI Pitch Wheel to Initial Pitch Controlled by MIDI Pitch Wheel Sensitivity
 lfo06_wave=0
 lfo06_pitch=0 lfo06_pitch_oncc129=50 lfo06_pitch_oncc1=50
 lfo06_freq=8.176

 amplitude_oncc11=100 amplitude_curvecc11=7


<master>
 global_volume=-15
 pan=-100
<group>
 lokey=54 hikey=90
 loop_mode=loop_continuous
 ampeg_attack=0.00620079
 pitch_keycenter=48 //overridingRootKey
 ampeg_release=0.0200072
 ampeg_sustain=100
 ampeg_decay=0.0200072
 ampeg_hold=0.0200072
 volume=-0
//EG WITHOUT TARGET

 lfo06_wave=0
 lfo06_pitch=0
 lfo06_freq=0.000998047

 lfo07_wave=0
 lfo07_freq=5.37859

<region>
 lokey=36 hikey=46
 volume=-2.5
 pitch_keycenter=53 //overridingRootKey
 region_label=Trumpet F#3:0
 tune=-1300 offset=169943 end=212756
 loop_start=202695 loop_end=212753
<region>
 lokey=47 hikey=60
 pitch_keycenter=60 //overridingRootKey
 region_label=Trumpet C4:0
 tune=-600 offset=212788 end=254353
 loop_start=247135 loop_end=254346
<region>
 lokey=61 hikey=68
 pitch_keycenter=67 //overridingRootKey
 region_label=Trumpet G4:0
 tune=-600 offset=29515 end=58888
 loop_start=52964 loop_end=58887
<region>
 lokey=69 hikey=75
 pitch_keycenter=73 //overridingRootKey
 region_label=Trumpet C#5:0
 tune=-600 offset=0 end=29483
 loop_start=23303 loop_end=29482
<region>
 lokey=76 hikey=80
 pitch_keycenter=79 //overridingRootKey
 region_label=Trumpet G5:0
 tune=-600 offset=58920 end=100495
 loop_start=94082 loop_end=100494
<region>
 lokey=81 hikey=84
 pitch_keycenter=83 //overridingRootKey
 region_label=Trumpet B5:0
 tune=-600 offset=100527 end=135392
 loop_start=128996 loop_end=135385
<region>
 lokey=85 hikey=96
 pitch_keycenter=85 //overridingRootKey
 region_label=Trumpet C#6:0
 tune=-600 offset=135424 end=169911
 loop_start=163956 loop_end=169910


















<master>
 global_volume=-15
 pan=100
<group>
 lokey=54 hikey=90
 loop_mode=loop_continuous
 ampeg_attack=0.00620079
 pitch_keycenter=48 //overridingRootKey
 ampeg_release=0.0200072
 ampeg_sustain=100
 ampeg_decay=0.0200072
 ampeg_hold=0.0200072
 volume=-0
//EG WITHOUT TARGET

 lfo06_wave=0
 lfo06_pitch=0
 lfo06_freq=0.000998047

 lfo07_wave=0
 lfo07_freq=5.37859

<region>
 lokey=36 hikey=46
 volume=-2.5
 pitch_keycenter=53 //overridingRootKey
 region_label=Trumpet F#3:0
 tune=-1300 offset=169943 end=212756
 loop_start=202695 loop_end=212753
<region>
 lokey=47 hikey=60
 pitch_keycenter=60 //overridingRootKey
 region_label=Trumpet C4:0
 tune=-600 offset=212788 end=254353
 loop_start=247135 loop_end=254346
<region>
 lokey=61 hikey=68
 pitch_keycenter=67 //overridingRootKey
 region_label=Trumpet G4:0
 tune=-600 offset=29515 end=58888
 loop_start=52964 loop_end=58887
<region>
 lokey=69 hikey=75
 pitch_keycenter=73 //overridingRootKey
 region_label=Trumpet C#5:0
 tune=-600 offset=0 end=29483
 loop_start=23303 loop_end=29482
<region>
 lokey=76 hikey=80
 pitch_keycenter=79 //overridingRootKey
 region_label=Trumpet G5:0
 tune=-600 offset=58920 end=100495
 loop_start=94082 loop_end=100494
<region>
 lokey=81 hikey=84
 pitch_keycenter=83 //overridingRootKey
 region_label=Trumpet B5:0
 tune=-600 offset=100527 end=135392
 loop_start=128996 loop_end=135385
<region>
 lokey=85 hikey=96
 pitch_keycenter=85 //overridingRootKey
 region_label=Trumpet C#6:0
 tune=-600 offset=135424 end=169911
 loop_start=163956 loop_end=169910




















<curve>//7 GMCurves::ConvaveLin
 v000=0            v001=6.20001e-05  v002=0.000248     v003=0.000558001  v004=0.000992002 
 v005=0.00155      v006=0.002232     v007=0.00303801   v008=0.00396801   v009=0.00502201  
 v010=0.00620001   v011=0.00750202   v012=0.00892802   v013=0.010478     v014=0.012152    
 v015=0.01395      v016=0.015872     v017=0.017918     v018=0.020088     v019=0.022382    
 v020=0.0248       v021=0.0273421    v022=0.0300081    v023=0.0327981    v024=0.0357121   
 v025=0.0387501    v026=0.0419121    v027=0.0451981    v028=0.0486081    v029=0.0521421   
 v030=0.0558001    v031=0.0595821    v032=0.0634881    v033=0.0675181    v034=0.0716721   
 v035=0.0759502    v036=0.0803522    v037=0.0848782    v038=0.0895282    v039=0.0943022   
 v040=0.0992002    v041=0.104222     v042=0.109368     v043=0.114638     v044=0.120032    
 v045=0.12555      v046=0.131192     v047=0.136958     v048=0.142848     v049=0.148862    
 v050=0.155        v051=0.161262     v052=0.167648     v053=0.174158     v054=0.180792    
 v055=0.18755      v056=0.194432     v057=0.201438     v058=0.208568     v059=0.215822    
 v060=0.2232       v061=0.230702     v062=0.238328     v063=0.246078     v064=0.253953    
 v065=0.261951     v066=0.270073     v067=0.278319     v068=0.286689     v069=0.295183    
 v070=0.303801     v071=0.312543     v072=0.321409     v073=0.330399     v074=0.339513    
 v075=0.348751     v076=0.358113     v077=0.367599     v078=0.377209     v079=0.386943    
 v080=0.396801     v081=0.406783     v082=0.416889     v083=0.427119     v084=0.437473    
 v085=0.447951     v086=0.458553     v087=0.469279     v088=0.480129     v089=0.491103    
 v090=0.502201     v091=0.513423     v092=0.524769     v093=0.536239     v094=0.547833    
 v095=0.559551     v096=0.571393     v097=0.583359     v098=0.595449     v099=0.607663    
 v100=0.620001     v101=0.632463     v102=0.645049     v103=0.657759     v104=0.670593    
 v105=0.683551     v106=0.696633     v107=0.709839     v108=0.723169     v109=0.736623    
 v110=0.750202     v111=0.763904     v112=0.77773      v113=0.79168      v114=0.805754    
 v115=0.819952     v116=0.834274     v117=0.84872      v118=0.86329      v119=0.877984    
 v120=0.892802     v121=0.907744     v122=0.92281      v123=0.938        v124=0.953314    
 v125=0.968752     v126=0.984314     v127=1           

